<svg width="180" height="48" xmlns="http://www.w3.org/2000/svg">
  <defs>
    <linearGradient id="gradient" x1="0%" y1="0%" x2="100%" y2="0%">
      <stop offset="0%" style="stop-color:#ff6b35;stop-opacity:1" />
      <stop offset="100%" style="stop-color:#f7931e;stop-opacity:1" />
    </linearGradient>
    <filter id="shadow" x="-50%" y="-50%" width="200%" height="200%">
      <feGaussianBlur in="SourceAlpha" stdDeviation="2"/>
      <feOffset dx="0" dy="2" result="offsetblur"/>
      <feComponentTransfer>
        <feFuncA type="linear" slope="0.3"/>
      </feComponentTransfer>
      <feMerge>
        <feMergeNode/>
        <feMergeNode in="SourceGraphic"/>
      </feMerge>
    </filter>
  </defs>
  
  <!-- Button background with rounded corners -->
  <rect x="0" y="0" width="180" height="48" rx="8" ry="8" fill="url(#gradient)" filter="url(#shadow)"/>
  
  <!-- CNB Icon -->
  <g transform="translate(16, 14)">
    <svg width="20" height="20" viewBox="0 0 16 16" xmlns="http://www.w3.org/2000/svg">
      <g fill="none">
        <path d="M11.5286 1.87149C11.5769 1.73005 11.5356 1.5733 11.4233 1.47452C11.0472 1.14247 10.0965 0.443125 8.66911 0.339708C7.07054 0.223769 6.08089 0.652279 5.58096 0.969951C5.36531 1.10676 5.35326 1.41748 5.55499 1.57422L9.62723 4.73936C9.98617 5.01807 10.5125 4.8604 10.6591 4.43003L11.5286 1.87149Z" fill="white"/>
        <path d="M1.49017 11.2664C1.32368 11.3781 1.24855 11.584 1.30235 11.7774C1.45724 12.3339 1.91868 13.4919 3.22833 14.5456C4.53797 15.5992 6.08738 15.7128 6.74962 15.6966C6.94764 15.692 7.12016 15.5617 7.17998 15.3724L9.79046 7.11064C9.97875 6.51425 9.31048 6.01386 8.79154 6.3626L1.49017 11.2664Z" fill="white"/>
        <path d="M3.39813 2.54827C3.27013 2.49773 3.12683 2.50607 3.00579 2.57193C2.52256 2.83488 1.28526 3.64506 0.647135 5.30947C0.154627 6.59222 0.328071 8.01085 0.463488 8.70463C0.508009 8.9314 0.747306 9.06218 0.962489 8.97824L8.79485 5.92024C9.35414 5.70181 9.35646 4.91111 8.7981 4.6899L3.39813 2.54827Z" fill="white"/>
        <path d="M15.0167 8.46843C15.243 8.62194 15.5528 8.48652 15.5922 8.21569C15.6961 7.49872 15.7861 6.25076 15.371 5.30933C14.8177 4.05487 13.8786 3.28133 13.433 2.9669C13.292 2.86766 13.1019 2.87786 12.9725 2.99241L10.9959 4.74541C10.6732 5.03154 10.7066 5.54492 11.0636 5.78746L15.0167 8.46936V8.46843Z" fill="white"/>
        <path d="M9.49413 15.1604C9.47372 15.3937 9.67128 15.5866 9.90409 15.5616C10.6531 15.4813 12.1918 15.1841 13.3447 14.0827C14.467 13.0109 14.832 11.7384 14.9382 11.2319C14.9669 11.0951 14.9326 10.9528 14.8445 10.8442L11.3886 6.57909C11.0143 6.11719 10.2681 6.34535 10.2162 6.93757L9.49366 15.1604H9.49413Z" fill="white"/>
      </g>
    </svg>
  </g>
  
  <!-- Text: Launch on CNB -->
  <text x="44" y="30" font-family="Arial, sans-serif" font-size="16" font-weight="600" fill="white">在CNB一键启动</text>
</svg>
