<svg xmlns="http://www.w3.org/2000/svg" viewBox="0 0 4385.15 1178.12"><defs><style>.cls-1{fill:#00e2ee;}.cls-2{fill:#06bbf1;}.cls-3{fill:#00ceed;}.cls-4{fill:#e058eb;}.cls-5{fill:#4c69e4;}.cls-6{fill:#2693ea;}.cls-7{fill:#9561e8;}.cls-8{fill:#0b0560;}</style></defs><g id="图层_2" data-name="图层 2"><g id="图层_1-2" data-name="图层 1"><polygon class="cls-1" points="228.49 0 0 86.68 260.25 772.69 435.59 545.91 228.49 0"/><polygon class="cls-1" points="414.05 1178.12 642.53 1091.44 537.26 813.93 361.92 1040.71 414.05 1178.12"/><polygon class="cls-2" points="962.73 263.65 769.4 114.17 724.25 172.57 884.91 364.3 962.73 263.65"/><polygon class="cls-2" points="99 981.25 292.33 1130.73 361.92 1040.71 260.25 772.69 99 981.25"/><polygon class="cls-2" points="435.59 545.91 537.26 813.93 731.9 562.19 571.24 370.46 435.59 545.91"/><polygon class="cls-3" points="260.25 772.69 361.92 1040.71 537.26 813.93 435.59 545.91 260.25 772.69"/><polygon class="cls-4" points="1365.34 536.2 1215.28 343.32 1004.64 507.18 1161.71 694.61 1365.34 536.2"/><polygon class="cls-4" points="719.12 729.3 869.18 922.18 968.7 844.76 811.63 657.33 719.12 729.3"/><polygon class="cls-5" points="968.7 844.76 1038.97 928.63 1226.28 771.67 1161.71 694.61 968.7 844.76"/><polygon class="cls-5" points="627.62 57.26 440.32 214.22 571.24 370.46 724.25 172.57 627.62 57.26"/><polygon class="cls-5" points="884.91 364.3 731.9 562.19 811.63 657.33 1004.64 507.18 884.91 364.3"/><polygon class="cls-6" points="724.25 172.57 571.24 370.46 731.9 562.19 884.91 364.3 724.25 172.57"/><polygon class="cls-7" points="1004.64 507.18 811.63 657.33 968.7 844.76 1161.71 694.61 1004.64 507.18"/><path class="cls-8" d="M1860.47,295.18h86.13c109.2,0,172.88,50.54,172.88,153.6,0,154.18-89.8,237.46-215.16,237.46H1782.26Zm42.09,325c75.15,0,132.68-52.21,132.68-166.28,0-64.79-35.93-92.73-90.83-92.73h-15.16l-51.44,259Z"/><path class="cls-8" d="M2202,388.56h66.81l-3.67,58h2.4c23-37.56,56.75-65.16,91-65.16,15.11,0,24.5,2.19,31.13,5.79l-27,71.18c-7.77-4.37-19.7-4.8-29.51-4.8-26.26,0-50.82,18.35-74.25,60.28l-33.46,172.43h-82.06Z"/><path class="cls-8" d="M2377.88,584.31c0-113.37,76.8-202.95,159-202.95,26.9,0,53.08,15.25,64.73,39.11H2603l12.78-31.91h65.81L2622,686.24h-66.81l1.27-38.89h-1.41c-27,28.24-62.26,46.09-93.17,46.09C2409.5,693.44,2377.88,654.48,2377.88,584.31Zm183.38-1.92,21.31-105.51c-9.94-19.82-26-28.5-40-28.5-41.35,0-79.67,54.41-79.67,125.41,0,36.48,13.55,52.64,34.78,52.64C2517.51,626.43,2542.07,616.27,2561.26,582.39Z"/><path class="cls-8" d="M2683.09,772.21l35.52-54.72c22.59,17.43,48.42,31.26,76.51,31.26,39,0,65-21.94,76.72-62.3l15.39-52.8c-26.68,27.46-58.51,43.13-91.4,43.13-50.19,0-86.76-34-86.76-104,0-106.8,73.83-191.44,155.37-191.44,26.78,0,52.09,15.25,63.73,39.11h1.41l12.78-31.91h66.81l-58.66,292.87c-17.86,88.17-74,132.36-157.57,132.36C2757.86,813.79,2717,799.54,2683.09,772.21ZM2890.83,571.3l18.35-94.42c-10.06-19.82-25-28.5-39-28.5-40.72,0-76.07,49.46-76.07,113.9,0,32.31,13.34,47.48,33.59,47.48C2847.43,609.76,2871.85,600.59,2890.83,571.3Z"/><path class="cls-8" d="M3035.67,570.76c0-114.72,84.86-189.4,166.82-189.4,69.46,0,115.56,48.71,115.56,122.69,0,114.71-84.85,189.39-166.81,189.39C3081.77,693.44,3035.67,644.73,3035.67,570.76ZM3235,505.68c0-36.34-14-58.29-41.63-58.29-40.08,0-74.65,52.29-74.65,121.74,0,36.34,14,58.29,41.63,58.29C3200.43,627.42,3235,575.12,3235,505.68Z"/><path class="cls-8" d="M3405,388.56h66.8l-1.27,39.88h2.4c29.08-25.26,62.47-47.08,100.24-47.08,49.2,0,70.38,26.83,70.38,76.53a207.62,207.62,0,0,1-4.8,42.35l-37.2,186h-82.06l35.22-175.69c2.61-12.07,4.8-20.47,4.8-28.51,0-20.39-10.65-30.69-30.27-30.69-18.49,0-36.69,12.27-62.52,38.88l-38.25,196h-82.06Z"/><path class="cls-8" d="M3703.18,528.05C3703.18,389.82,3796.09,288,3902,288c89.37,0,147,61.48,147,165.39,0,138.23-92.9,240.07-198.85,240.07C3760.79,693.44,3703.18,632,3703.18,528.05Zm261.59-69.31c0-62.1-23.5-99.79-66.9-99.79-55.6,0-110.44,73.1-110.44,163.74,0,62.1,23.5,99.78,66.9,99.78C3909.92,622.47,3964.77,549.37,3964.77,458.74Z"/><path class="cls-8" d="M4067.83,620l58.9-46.19c21.24,30,53.29,49.62,87.09,49.62,33.3,0,56.37-17.14,56.37-45.29,0-20.67-17.92-31.33-45.66-48.34l-37-22.79c-35.37-22.17-58.45-50.27-58.45-97.7,0-67.14,60.71-121.36,137.59-121.36,46,0,88.66,23,118.46,59.23l-51.77,48.37c-19.9-21-41.92-36.63-70.29-36.63-32.25,0-49.74,19.76-49.74,42.05,0,20.11,18.27,29.85,48.84,48.91l38.75,23.57c37.69,22.59,54.49,47.72,54.49,92.9,0,71.08-58.17,127.06-148,127.06C4156.5,693.44,4106.1,672.41,4067.83,620Z"/><path class="cls-8" d="M2620.54,926.8q-.32,7.91-1.47,20.8h47.46a189,189,0,0,0,21.1-1.17v11.72q-10.56-.58-21.1-.59h-28.71v53.32a212.31,212.31,0,0,0,14.06-18.45,102.62,102.62,0,0,0,11.14-20.8,140.66,140.66,0,0,0,14.64,5.85,124,124,0,0,0-16.4,21.1q-8.22,12.9-22.85,25.78c-.4,6.65.09,10.15,1.46,10.55a51.69,51.69,0,0,0,6.74,1.17h18.75c4.69-.39,8-.79,10-1.17s3.71-5.47,5.27-15.24a23.78,23.78,0,0,0,13.48,7q-5.87,12.88-8.79,15.82c-2,2-5.27,2.93-10,2.93h-34.57q-9.37,0-11.72-2.63t-2.34-10.84a76.38,76.38,0,0,1-10.84,7l-12.6,7c-1.17-2.34-4.1-5.48-8.79-9.38a114.63,114.63,0,0,0,17.58-8.2,85.39,85.39,0,0,0,14.65-10V957.56h-8.2A195.05,195.05,0,0,1,2612,985.1a123.62,123.62,0,0,1-8.79,20.22,115.3,115.3,0,0,1-13.48,19.33q-8.2,9.67-22.85,22,0-3.53-11.13-10a76.9,76.9,0,0,0,18.46-13.77,124.78,124.78,0,0,0,15.23-18.45,94,94,0,0,0,10.84-21.68,125.15,125.15,0,0,0,5.86-25.2h-22.85q-10.54,0-21.68.59V947q11.71.59,21.68.58h24.61c.38-4.69.68-10.34.88-17a147.64,147.64,0,0,0-.88-20.51q12.3,2.94,15.82,3.52A29,29,0,0,0,2620.54,926.8Zm37.2,16.7a151.65,151.65,0,0,0-15.82-19.34,71.26,71.26,0,0,0,8.79-7.61,140.3,140.3,0,0,1,16.41,18.75Q2664.18,937.64,2657.74,943.5Z"/><path class="cls-8" d="M2801.3,911.27H2813q-1.77,7.62-1.18,30.47,6.45,0,15.24-.58V951.7q-9.37-.57-15.24-.58v25.19q6.45-2.32,14.07-5.86a64.54,64.54,0,0,0,.58,10,139.73,139.73,0,0,1-14.65,6.45v42.19q0,10.54-5,12.89t-16.11,4.69a46.08,46.08,0,0,0-5.27-13.48,91.38,91.38,0,0,0,12.89-.59c2.34-.38,3.51-2.34,3.51-5.86V991q-7,2.35-17.57,9.38-2.36-7-4.69-12.89,7-1.17,22.26-7V951.12q-11.13,0-19.92.58V941.16q8.79.58,19.92.58Q2801.88,918.31,2801.3,911.27Zm63.28,76.18h11.13q-.59,6.45-.58,10.54,32.8,0,42.18-.58V1008q-10.54-.57-32.81-.58,11.13,18.17,34,24a37.92,37.92,0,0,0-8.79,11.13q-25.8-12.3-34.57-34.57,0,29.9.58,39.85h-11.13q.57-10.54.58-38.67-11.72,20.5-34,35.74a45.78,45.78,0,0,0-10-9.38,72.26,72.26,0,0,0,32.81-28.12q-19.92,0-28.71,1.17V997.41q9.38.58,39.84.58C2865.16,995.26,2865,991.75,2864.58,987.45Zm-35.16-1.18q.59-8.19.59-15.82,0-8.19-.59-15.82h35.74q-.59,7.62-.58,15.82,0,7.62.58,15.82Zm25.78-8.79V963.42h-16.4v14.06Zm41.61-63.86q-.6,7.62-.59,15.23t.59,15.82H2842.9c.38-5.86.59-11.13.59-15.82,0-5.07-.21-10.15-.59-15.23Zm-10.55,22.26V921.82h-33.4v14.06ZM2912,954.63q-.59,7.62-.59,15.82,0,7.62.59,15.82h-37.5c.38-5.46.59-10.74.59-15.82,0-5.46-.21-10.74-.59-15.82Zm-10,22.85V963.42h-18.17v14.06Z"/><path class="cls-8" d="M3039.77,942.33v75q0,18.75.59,29.88h-13.48q.59-10.55.59-29.3V962.84a208.48,208.48,0,0,1-15.82,22.85q-4.7-7-8.2-10,7.61-8.21,18.45-27.25a162.83,162.83,0,0,0,16.12-39,91.89,91.89,0,0,0,15.23,7.61Q3048,921.24,3039.77,942.33Zm41.61-5.27h38.67q12.88,0,20.51-.59V947q-7.64-.59-20.51-.59h-27v22.85h24q10,0,16.4-.58v11.13q-7.62-.58-16.4-.59h-24v26.37h25.2q11.72,0,19.34-.59v11.14q-7.64-.58-18.75-.59h-25.79v11.13q0,16.41.59,22.27h-12.3q.57-6.45.58-17.58v-85h-5.86a282.9,282.9,0,0,1-17,26.37q-6.45-5.85-11.13-7.62,8.19-8.2,17-23.44A153.37,153.37,0,0,0,3079,908.93a97.09,97.09,0,0,0,15.24,5.86Q3088.41,919.48,3081.38,937.06Z"/><path class="cls-8" d="M3259.79,1024.36q-8.49,8.21-17.28,15.82a39.83,39.83,0,0,0-10-7.62q16.39-9.94,30.47-28.12a109.75,109.75,0,0,0,12.3,8.2Q3268.29,1016.15,3259.79,1024.36Zm98.15-100.78q-17.58.58-30.18,2T3297,928.85a26.88,26.88,0,0,0,8.2,5.28A124.85,124.85,0,0,0,3290.26,945q-7.34,6.15-14.35,11.42h29.29q14.64-10,24.61-18.16a60,60,0,0,0,14.07,8.2q-8.22,3.51-15.82,7.62T3303.15,969q-17.28,10.85-29.59,17.87,34.58-1.75,64.46-2.93-2.94-2.92-15.24-12.3a35.36,35.36,0,0,0,10-5.86q7,5.26,16.12,13.18t17.28,15.53a76.6,76.6,0,0,0-11.13,7.61,70.61,70.61,0,0,0-8.79-9.37q-15.82.59-37.5,1.76v35.15q0,11.13-5.57,13.19t-20.21,4.39a36.21,36.21,0,0,0-5.28-13.48q13.49,0,16.7-.87c2.15-.59,3.23-2.83,3.23-6.74V994.48q-35.74.59-48.64,2.93-1.75-5.85-4.1-12.31a67.59,67.59,0,0,0,22.85-5.86,194.1,194.1,0,0,0,24-14.06q-13.49,0-20.22.59t-14.94,1.75q-1.76-6.43-3.51-12.3,9.95,0,19.92-7.91A59.38,59.38,0,0,0,3288.21,930q-32.82,1.18-42.77,2.35a67.47,67.47,0,0,0-4.1-10.55q32.8,0,58.59-2.34a292.47,292.47,0,0,0,48.05-8.21A65.27,65.27,0,0,0,3357.94,923.58Zm-9.38,92.28a128.89,128.89,0,0,1,15.82,13.19,104.78,104.78,0,0,0-9.37,9.37,140.79,140.79,0,0,0-15.82-14.65q-8.22-6.43-15.24-11.13a34.31,34.31,0,0,0,8.21-8.79Q3339.18,1009.13,3348.56,1015.86Z"/><path class="cls-8" d="M3483.91,933.54q-4.69,8.21-14.06,23.44,11.13-.59,17.58-.59a103,103,0,0,0,7.62-16.41,87.59,87.59,0,0,0,13.47,7q-4.09,4.1-11.13,14.94t-19.92,30.76q17-1.76,29.88-4.1-2.94,7-2.93,11.13-5.27.59-18.45,2.34a157,157,0,0,0-23.15,4.69q-1.76-5.85-4.1-11.72,6.44-1.75,12.3-10.54t11.72-19.34q-5.26.59-12.3,1.46a102,102,0,0,0-11.72,2.06,100.13,100.13,0,0,0-5.27-11.14q7-1.75,15.52-18.75t9.67-24.61a105.4,105.4,0,0,0,14.06,5.86A117.5,117.5,0,0,0,3483.91,933.54Zm24.61,91.41q-13.48,3.51-26.66,7.32a199.4,199.4,0,0,0-20.21,6.74,76.45,76.45,0,0,0-6.45-12.31q14.64-2.33,27.54-5.27a213.07,213.07,0,0,0,25.78-7.62A53.14,53.14,0,0,0,3508.52,1025Zm60.94-92.58q8.79,0,18.75-.59v10.55q-9.37-.58-18.16-.59h-32.81a90.29,90.29,0,0,0,11.13,7A49.42,49.42,0,0,0,3538.7,959q-5,6.74-14.36,18.45,13.48,0,42.19-2.92c-1.56-2-4.69-5.66-9.37-11.14a57,57,0,0,0,9.37-6.44,260,260,0,0,1,21.68,26.95,51.16,51.16,0,0,0-10,7.62q-3.51-4.68-5.86-8.21a81.88,81.88,0,0,0-10.55,1.18v43.94q0,7,5.86,7h5.86q5.28,0,7-15.82a32.61,32.61,0,0,0,12.31,5.86q-5.28,19.92-14.65,19.92h-15.82q-11.73,0-11.72-12.3V985.69a110.25,110.25,0,0,0-11.13,1.17q.57,21.69-5.57,35.45t-23.73,27.25q-2.94-4.71-10.54-7.62a76.67,76.67,0,0,0,15.82-12.89,51.85,51.85,0,0,0,10-15.82q3.51-8.79,2.93-25.2a90.19,90.19,0,0,0-15.82,2.35,70.91,70.91,0,0,0-4.69-15.24q7-.57,15.53-11.72t11.42-21.68h-9.37q-7.62,0-18.75.59V931.78q9.36.6,18.16.59Zm-15.23-6.45q-4.11,1.76-11.14,5.28a96.5,96.5,0,0,0-8.78-17,45.53,45.53,0,0,0,10.54-4.68Q3551.3,920.07,3554.23,925.92Z"/></g></g></svg>